<svg xmlns="http://www.w3.org/2000/svg" viewBox="0 0 179 113.39"><defs><style>.cls-1{fill:#9259ed;}</style></defs><g id="Layer_2" data-name="Layer 2"><g id="Layer_1-2" data-name="Layer 1"><path class="cls-1" d="M29,82.63A38,38,0,0,1,54.19,18.82V.06a56.69,56.69,0,0,0,0,113.27V94.56A38,38,0,0,1,29,82.63Z"/><path class="cls-1" d="M79.4,60.85C80.68,59.43,81.9,58,83,56.63c-1.18-1.47-2.47-3-3.84-4.44a58.07,58.07,0,0,0-12.74-10.8c-3.62-2.15-6.91-3.23-9.79-3.23a18.49,18.49,0,0,0-18.46,18.5v0A18.51,18.51,0,0,0,56.65,75.16c2.9,0,6.24-1.11,9.9-3.31A59,59,0,0,0,79.4,60.85Z"/><path class="cls-1" d="M159.26,24.7c6.67-4,13.31-6,19.73-6V0c-9.9,0-19.83,2.93-29.52,8.73a96.89,96.89,0,0,0-21.45,18,140.47,140.47,0,0,0-10.2,12.61,137.32,137.32,0,0,0-10.2-12.63,96.44,96.44,0,0,0-21.45-18A58.09,58.09,0,0,0,59.6.09v18.8A40.24,40.24,0,0,1,76.4,24.7,77.1,77.1,0,0,1,93.53,39.06,124.85,124.85,0,0,1,107,56.69,123.63,123.63,0,0,1,93.79,74,78.42,78.42,0,0,1,76.56,88.59a40.76,40.76,0,0,1-17,5.91v18.79a58.35,58.35,0,0,0,26.57-8.64,96.17,96.17,0,0,0,21.45-18,142.6,142.6,0,0,0,10.17-12.58l.25-.4,3.26,5c2,2.58,4.29,5.31,6.76,8a97.9,97.9,0,0,0,21.45,18c9.69,5.79,19.62,8.72,29.52,8.72V94.65c-6.42,0-13.06-2-19.73-6a78.34,78.34,0,0,1-17.13-14.36A121.55,121.55,0,0,1,132,61.62l-3.21-5.06A126.12,126.12,0,0,1,142.09,39,77.18,77.18,0,0,1,159.26,24.7Z"/></g></g></svg>
